<svg id="icon-heart" viewBox="0 0 32 32">
<path d="M16 29.689c-0.356 0-0.711-0.178-0.889-0.356l-11.911-11.911c-1.6-1.6-2.489-3.733-2.489-6.044s0.889-4.444 2.489-6.044 3.911-2.667 6.222-2.667 4.444 0.889 6.044 2.489l0.533 0.533 0.533-0.533c0.889-0.889 1.778-1.422 2.844-1.956 2.133-0.889 4.444-0.889 6.578 0 1.067 0.356 1.956 1.067 2.844 1.956v0c0.889 0.889 1.422 1.778 1.956 2.844 0.356 1.067 0.711 2.133 0.711 3.378s-0.178 2.311-0.711 3.378c-0.356 1.067-1.067 1.956-1.956 2.844l-11.733 11.733c-0.356 0.178-0.711 0.356-1.067 0.356zM9.422 5.333c-1.6 0-3.2 0.711-4.267 1.778s-1.778 2.667-1.778 4.267 0.711 3.022 1.778 4.267l10.844 10.844 10.844-10.844c0.533-0.533 1.067-1.244 1.244-1.956 0.356-0.711 0.533-1.422 0.533-2.311s-0.178-1.6-0.533-2.311c-0.356-0.711-0.711-1.422-1.244-1.956 0 0 0 0 0 0-0.533-0.533-1.244-1.067-1.956-1.244-1.422-0.533-3.2-0.533-4.622 0-0.711 0.178-1.422 0.711-1.956 1.244l-1.422 1.422c-0.533 0.533-1.422 0.533-1.956 0l-1.244-1.422c-1.244-1.067-2.667-1.778-4.267-1.778z"></path>
</svg>